<?xml version="1.0" encoding="utf-8"?>
<!-- Generator: Adobe Illustrator 22.1.0, SVG Export Plug-In . SVG Version: 6.00 Build 0)  -->
<svg version="1.1" id="图层_1" xmlns="http://www.w3.org/2000/svg" xmlns:xlink="http://www.w3.org/1999/xlink" x="0px" y="0px"
	 viewBox="0 0 1200 900" style="enable-background:new 0 0 1200 900;" xml:space="preserve">
<style type="text/css">
	.st0{opacity:0.1;}
</style>
<g class="st0">
	<path d="M812.7,166.1c-5.1,6.8-15.2,10.2-23.7,11.9h3.4c6.8,1.7,11.9,3.4,16.9,6.8c11.9,8.5,15.2,133.8,15.2,133.8
		c1.7-11.9,3.4-120.2,10.2-128.7c1.7-1.7,3.4-3.4,5.1-5.1c5.1-3.4,11.9-6.8,18.6-8.5c0,0-1.7,0-3.4-1.7c-6.8-1.7-10.2-1.7-16.9-6.8
		c-11.9-8.5-15.2-54.2-16.9-67.7C822.8,101.8,821.1,156,812.7,166.1z"/>
	<path d="M721.3,306.7l223.5,369.1c23.7,37.2,18.6,44-18.6,44c-77.9,0-235.3,0-287.8,0c-50.8-8.5-88-45.7-106.7-67.7
		c-6.8-8.5-10.2-15.2-5.1-23.7l111.7-133.8c27.1-30.5,44-30.5,64.3,0L826.2,691c6.8,8.5,15.2,8.5,23.7,8.5h37.2
		c11.9,0,15.2-10.2,8.5-20.3L709.4,391.3c-23.7-37.2-40.6-42.3-72.8-5.1L352.2,709.6c-8.5,10.2,0,15.2,10.2,18.6
		c15.2,5.1,28.8,3.4,44-1.7c25.4-8.5,54.2-27.1,77.9-47.4c3.4-3.4,6.8-5.1,11.9,0c57.6,59.3,113.4,60.9,113.4,60.9H999
		c27.1-3.4,33.9-28.8,22-50.8L719.6,183.1c-28.8-47.4-45.7-42.3-77.9-3.4L336.9,542c0,0-67.7-20.3-128.7,0
		C132,569.1,89.7,672.4,171,724.8c69.4,44,127-16.9,167.6-64.3c44-50.8,110-130.4,110-130.4l189.6-228.6
		C675.5,259.3,685.7,247.4,721.3,306.7L721.3,306.7z M294.6,597.9l-44,54.2c-23.7,28.8-55.9,64.3-96.5,27.1
		c-28.8-35.6,5.1-72.8,40.6-86.3s84.7-20.3,99.9-10.2C301.4,586,299.7,591.1,294.6,597.9z"/>
</g>
</svg>
